<?xml version="1.0" encoding="UTF-8" standalone="no"?>
<!-- Created with Inkscape (http://www.inkscape.org/) -->

<svg
   version="1.1"
   id="svg1"
   width="1680"
   height="1680"
   viewBox="0 0 1680 1680"
   xmlns="http://www.w3.org/2000/svg"
   xmlns:svg="http://www.w3.org/2000/svg">
  <defs
     id="defs1" />
  <g
     style="opacity:1"
     id="layer2">
    <path
       id="path8"
       d="m 679.85941,537.11313 c 70.28797,-4.97979 229.24225,9.37879 227.42628,4.83885 14.40742,105.60138 -8.18682,219.45318 4.83885,307.26742 78.64671,28.05572 162.32236,-259.23256 222.58746,-300.00913 101.3474,-26.02294 217.5528,0.50561 212.9097,-12.09714 -47.0769,162.63559 -198.8172,359.92214 -188.7154,343.55884 70.6352,92.33175 172.641,180.18193 203.2319,278.23433 -58.9538,19.4891 -124.9556,27.2315 -203.2319,14.5165 -75.6359,-69.6346 -103.3232,-195.93569 -241.9429,-191.13483 -3.685,93.17933 -7.44386,187.46663 -4.83886,186.29603 l -123.39085,12.0971 C 419.22107,1091.7482 350.02221,749.10351 278.23428,563.72684 l 198.39313,-7.25829 c 43.53532,130.34111 61.4783,270.63479 215.32914,358.07542 29.95685,-58.38605 2.03662,-197.8 2.41943,-297.5897 -54.83905,-34.94708 -41.49897,-77.92948 -14.51657,-79.84114 z"
       style="fill:#ffffff;fill-opacity:1;stroke:none;stroke-width:94.4882;stroke-linecap:round;stroke-linejoin:round;stroke-opacity:0" />
  </g>
</svg>
